<?xml version="1.0" encoding="utf-8" standalone="no"?>
<!DOCTYPE svg PUBLIC "-//W3C//DTD SVG 1.1//EN"
  "http://www.w3.org/Graphics/SVG/1.1/DTD/svg11.dtd">
<!-- Created with matplotlib (http://matplotlib.org/) -->
<svg height="413pt" version="1.1" viewBox="0 0 523 413" width="523pt" xmlns="http://www.w3.org/2000/svg" xmlns:xlink="http://www.w3.org/1999/xlink">
 <defs>
  <style type="text/css">
*{stroke-linecap:square;stroke-linejoin:round;}
  </style>
 </defs>
 <g id="figure_1">
  <g id="patch_1">
   <path d="
M0 413.257
L523.71 413.257
L523.71 0
L0 0
z
" style="fill:none;opacity:0.0;"/>
  </g>
  <g id="axes_1">
   <g id="patch_2">
    <path d="
M58.1512 360.86
L504.551 360.86
L504.551 15.2597
L58.1512 15.2597
z
" style="fill:none;opacity:0.0;"/>
   </g>
   <g id="PathCollection_1">
    <defs>
     <path d="
M4.32978e-16 -7.07107
L-1.58755 -2.18508
L-6.72499 -2.18508
L-2.56872 0.834626
L-4.15627 5.72061
L-4.96149e-16 2.70091
L4.15627 5.72061
L2.56872 0.834626
L6.72499 -2.18508
L1.58755 -2.18508
z
" id="C0_0_83c3656530"/>
    </defs>
    <g clip-path="url(#pa8fed4111e)">
     <use style="fill:#bfbf00;stroke:#bfbf00;stroke-linecap:butt;" x="430.15125" xlink:href="#C0_0_83c3656530" y="212.745401786"/>
    </g>
   </g>
   <g id="PathCollection_2">
    <defs>
     <path d="
M4.32978e-16 -7.07107
L-1.58755 -2.18508
L-6.72499 -2.18508
L-2.56872 0.834626
L-4.15627 5.72061
L-4.96149e-16 2.70091
L4.15627 5.72061
L2.56872 0.834626
L6.72499 -2.18508
L1.58755 -2.18508
z
" id="C1_0_83c3656530"/>
    </defs>
    <g clip-path="url(#pa8fed4111e)">
     <use style="fill:#bfbf00;stroke:#bfbf00;stroke-linecap:butt;" x="132.55125" xlink:href="#C1_0_83c3656530" y="163.373973214"/>
    </g>
   </g>
   <g id="PathCollection_3">
    <defs>
     <path d="
M4.32978e-16 -7.07107
L-1.58755 -2.18508
L-6.72499 -2.18508
L-2.56872 0.834626
L-4.15627 5.72061
L-4.96149e-16 2.70091
L4.15627 5.72061
L2.56872 0.834626
L6.72499 -2.18508
L1.58755 -2.18508
z
" id="C2_0_83c3656530"/>
    </defs>
    <g clip-path="url(#pa8fed4111e)">
     <use style="fill:#bfbf00;stroke:#bfbf00;stroke-linecap:butt;" x="430.15125" xlink:href="#C2_0_83c3656530" y="64.6311160714"/>
    </g>
   </g>
   <g id="line2d_1">
    <path clip-path="url(#pa8fed4111e)" d="
M281.351 262.117
L430.151 212.745" style="fill:none;stroke:#bfbf00;"/>
   </g>
   <g id="line2d_2">
    <path clip-path="url(#pa8fed4111e)" d="
M281.351 262.117
L132.551 163.374" style="fill:none;stroke:#bfbf00;"/>
   </g>
   <g id="line2d_3">
    <path clip-path="url(#pa8fed4111e)" d="
M281.351 262.117
L430.151 64.6311" style="fill:none;stroke:#bfbf00;"/>
   </g>
   <g id="matplotlib.axis_1">
    <g id="xtick_1">
     <g id="line2d_4">
      <defs>
       <path d="
M0 0
L0 -4" id="m9ed156250a" style="stroke:#ff0000;stroke-linecap:butt;stroke-width:0.5;"/>
      </defs>
      <g>
       <use style="fill:#ff0000;stroke:#ff0000;stroke-linecap:butt;stroke-width:0.5;" x="58.15125" xlink:href="#m9ed156250a" y="360.8596875"/>
      </g>
     </g>
     <g id="line2d_5">
      <defs>
       <path d="
M0 0
L0 4" id="md7e888d93f" style="stroke:#ff0000;stroke-linecap:butt;stroke-width:0.5;"/>
      </defs>
      <g>
       <use style="fill:#ff0000;stroke:#ff0000;stroke-linecap:butt;stroke-width:0.5;" x="58.15125" xlink:href="#md7e888d93f" y="15.2596875"/>
      </g>
     </g>
     <g id="text_1">
      <!-- −1.5 -->
      <defs>
       <path d="
M12.4062 8.29688
L28.5156 8.29688
L28.5156 63.9219
L10.9844 60.4062
L10.9844 69.3906
L28.4219 72.9062
L38.2812 72.9062
L38.2812 8.29688
L54.3906 8.29688
L54.3906 0
L12.4062 0
z
" id="DejaVuSans-31"/>
       <path d="
M10.6875 12.4062
L21 12.4062
L21 0
L10.6875 0
z
" id="DejaVuSans-2e"/>
       <path d="
M10.7969 72.9062
L49.5156 72.9062
L49.5156 64.5938
L19.8281 64.5938
L19.8281 46.7344
Q21.9688 47.4688 24.1094 47.8281
Q26.2656 48.1875 28.4219 48.1875
Q40.625 48.1875 47.75 41.5
Q54.8906 34.8125 54.8906 23.3906
Q54.8906 11.625 47.5625 5.09375
Q40.2344 -1.42188 26.9062 -1.42188
Q22.3125 -1.42188 17.5469 -0.640625
Q12.7969 0.140625 7.71875 1.70312
L7.71875 11.625
Q12.1094 9.23438 16.7969 8.0625
Q21.4844 6.89062 26.7031 6.89062
Q35.1562 6.89062 40.0781 11.3281
Q45.0156 15.7656 45.0156 23.3906
Q45.0156 31 40.0781 35.4375
Q35.1562 39.8906 26.7031 39.8906
Q22.75 39.8906 18.8125 39.0156
Q14.8906 38.1406 10.7969 36.2812
z
" id="DejaVuSans-35"/>
       <path d="
M10.5938 35.5
L73.1875 35.5
L73.1875 27.2031
L10.5938 27.2031
z
" id="DejaVuSans-2212"/>
      </defs>
      <g style="fill:#ff0000;" transform="translate(44.74125 373.6084375)scale(0.12 -0.12)">
       <use xlink:href="#DejaVuSans-2212"/>
       <use x="83.7890625" xlink:href="#DejaVuSans-31"/>
       <use x="147.412109375" xlink:href="#DejaVuSans-2e"/>
       <use x="179.19921875" xlink:href="#DejaVuSans-35"/>
      </g>
     </g>
    </g>
    <g id="xtick_2">
     <g id="line2d_6">
      <g>
       <use style="fill:#ff0000;stroke:#ff0000;stroke-linecap:butt;stroke-width:0.5;" x="132.55125" xlink:href="#m9ed156250a" y="360.8596875"/>
      </g>
     </g>
     <g id="line2d_7">
      <g>
       <use style="fill:#ff0000;stroke:#ff0000;stroke-linecap:butt;stroke-width:0.5;" x="132.55125" xlink:href="#md7e888d93f" y="15.2596875"/>
      </g>
     </g>
     <g id="text_2">
      <!-- −1.0 -->
      <defs>
       <path d="
M31.7812 66.4062
Q24.1719 66.4062 20.3281 58.9062
Q16.5 51.4219 16.5 36.375
Q16.5 21.3906 20.3281 13.8906
Q24.1719 6.39062 31.7812 6.39062
Q39.4531 6.39062 43.2812 13.8906
Q47.125 21.3906 47.125 36.375
Q47.125 51.4219 43.2812 58.9062
Q39.4531 66.4062 31.7812 66.4062
M31.7812 74.2188
Q44.0469 74.2188 50.5156 64.5156
Q56.9844 54.8281 56.9844 36.375
Q56.9844 17.9688 50.5156 8.26562
Q44.0469 -1.42188 31.7812 -1.42188
Q19.5312 -1.42188 13.0625 8.26562
Q6.59375 17.9688 6.59375 36.375
Q6.59375 54.8281 13.0625 64.5156
Q19.5312 74.2188 31.7812 74.2188" id="DejaVuSans-30"/>
      </defs>
      <g style="fill:#ff0000;" transform="translate(119.015625 373.7659375)scale(0.12 -0.12)">
       <use xlink:href="#DejaVuSans-2212"/>
       <use x="83.7890625" xlink:href="#DejaVuSans-31"/>
       <use x="147.412109375" xlink:href="#DejaVuSans-2e"/>
       <use x="179.19921875" xlink:href="#DejaVuSans-30"/>
      </g>
     </g>
    </g>
    <g id="xtick_3">
     <g id="line2d_8">
      <g>
       <use style="fill:#ff0000;stroke:#ff0000;stroke-linecap:butt;stroke-width:0.5;" x="206.95125" xlink:href="#m9ed156250a" y="360.8596875"/>
      </g>
     </g>
     <g id="line2d_9">
      <g>
       <use style="fill:#ff0000;stroke:#ff0000;stroke-linecap:butt;stroke-width:0.5;" x="206.95125" xlink:href="#md7e888d93f" y="15.2596875"/>
      </g>
     </g>
     <g id="text_3">
      <!-- −0.5 -->
      <g style="fill:#ff0000;" transform="translate(193.54125 373.7659375)scale(0.12 -0.12)">
       <use xlink:href="#DejaVuSans-2212"/>
       <use x="83.7890625" xlink:href="#DejaVuSans-30"/>
       <use x="147.412109375" xlink:href="#DejaVuSans-2e"/>
       <use x="179.19921875" xlink:href="#DejaVuSans-35"/>
      </g>
     </g>
    </g>
    <g id="xtick_4">
     <g id="line2d_10">
      <g>
       <use style="fill:#ff0000;stroke:#ff0000;stroke-linecap:butt;stroke-width:0.5;" x="281.35125" xlink:href="#m9ed156250a" y="360.8596875"/>
      </g>
     </g>
     <g id="line2d_11">
      <g>
       <use style="fill:#ff0000;stroke:#ff0000;stroke-linecap:butt;stroke-width:0.5;" x="281.35125" xlink:href="#md7e888d93f" y="15.2596875"/>
      </g>
     </g>
     <g id="text_4">
      <!-- 0.0 -->
      <g style="fill:#ff0000;" transform="translate(272.6034375 373.7659375)scale(0.12 -0.12)">
       <use xlink:href="#DejaVuSans-30"/>
       <use x="63.623046875" xlink:href="#DejaVuSans-2e"/>
       <use x="95.41015625" xlink:href="#DejaVuSans-30"/>
      </g>
     </g>
    </g>
    <g id="xtick_5">
     <g id="line2d_12">
      <g>
       <use style="fill:#ff0000;stroke:#ff0000;stroke-linecap:butt;stroke-width:0.5;" x="355.75125" xlink:href="#m9ed156250a" y="360.8596875"/>
      </g>
     </g>
     <g id="line2d_13">
      <g>
       <use style="fill:#ff0000;stroke:#ff0000;stroke-linecap:butt;stroke-width:0.5;" x="355.75125" xlink:href="#md7e888d93f" y="15.2596875"/>
      </g>
     </g>
     <g id="text_5">
      <!-- 0.5 -->
      <g style="fill:#ff0000;" transform="translate(347.1290625 373.7659375)scale(0.12 -0.12)">
       <use xlink:href="#DejaVuSans-30"/>
       <use x="63.623046875" xlink:href="#DejaVuSans-2e"/>
       <use x="95.41015625" xlink:href="#DejaVuSans-35"/>
      </g>
     </g>
    </g>
    <g id="xtick_6">
     <g id="line2d_14">
      <g>
       <use style="fill:#ff0000;stroke:#ff0000;stroke-linecap:butt;stroke-width:0.5;" x="430.15125" xlink:href="#m9ed156250a" y="360.8596875"/>
      </g>
     </g>
     <g id="line2d_15">
      <g>
       <use style="fill:#ff0000;stroke:#ff0000;stroke-linecap:butt;stroke-width:0.5;" x="430.15125" xlink:href="#md7e888d93f" y="15.2596875"/>
      </g>
     </g>
     <g id="text_6">
      <!-- 1.0 -->
      <g style="fill:#ff0000;" transform="translate(421.666875 373.7659375)scale(0.12 -0.12)">
       <use xlink:href="#DejaVuSans-31"/>
       <use x="63.623046875" xlink:href="#DejaVuSans-2e"/>
       <use x="95.41015625" xlink:href="#DejaVuSans-30"/>
      </g>
     </g>
    </g>
    <g id="xtick_7">
     <g id="line2d_16">
      <g>
       <use style="fill:#ff0000;stroke:#ff0000;stroke-linecap:butt;stroke-width:0.5;" x="504.55125" xlink:href="#m9ed156250a" y="360.8596875"/>
      </g>
     </g>
     <g id="line2d_17">
      <g>
       <use style="fill:#ff0000;stroke:#ff0000;stroke-linecap:butt;stroke-width:0.5;" x="504.55125" xlink:href="#md7e888d93f" y="15.2596875"/>
      </g>
     </g>
     <g id="text_7">
      <!-- 1.5 -->
      <g style="fill:#ff0000;" transform="translate(496.1925 373.6084375)scale(0.12 -0.12)">
       <use xlink:href="#DejaVuSans-31"/>
       <use x="63.623046875" xlink:href="#DejaVuSans-2e"/>
       <use x="95.41015625" xlink:href="#DejaVuSans-35"/>
      </g>
     </g>
    </g>
    <g id="text_8">
     <!-- $b_0$ -->
     <defs>
      <path d="
M17.2812 -1.125
Q11.2344 -1.125 7.85938 3.60938
Q4.5 8.34375 4.5 14.7031
Q4.5 15.625 4.95312 18.3281
Q5.42188 21.0469 5.42188 21.6875
L15.0938 60.5
Q15.4844 62.2031 15.5781 63.1875
Q15.5781 64.7969 9.07812 64.7969
Q8.10938 64.7969 8.10938 66.1094
Q8.15625 66.3594 8.32812 66.9844
Q8.5 67.625 8.76562 67.9688
Q9.03125 68.3125 9.51562 68.3125
L23 69.3906
Q24.2188 69.3906 24.2188 68.1094
L16.7969 38.625
Q22.4688 44.1875 28.2188 44.1875
Q32.4688 44.1875 35.5156 41.9375
Q38.5781 39.7031 40.0938 36.0312
Q41.6094 32.375 41.6094 28.2188
Q41.6094 23.3906 39.7188 18.2344
Q37.8438 13.0938 34.5156 8.67188
Q31.2031 4.25 26.75 1.5625
Q22.3125 -1.125 17.2812 -1.125
M17.4844 1.51562
Q20.9062 1.51562 23.875 4.375
Q26.8594 7.23438 28.7188 10.7969
Q30.7188 14.7969 32.4531 21.6562
Q34.1875 28.5156 34.1875 32.625
Q34.1875 36.1875 32.6875 38.8906
Q31.2031 41.6094 27.9844 41.6094
Q24.3594 41.6094 21.0625 38.9375
Q17.7812 36.2812 15.2812 32.625
L12.5 21.2969
Q10.8906 14.9844 10.7969 11.1875
Q10.7969 7.42188 12.4219 4.46875
Q14.0625 1.51562 17.4844 1.51562" id="Cmmi10-62"/>
      <path d="
M25 -2.20312
Q12.75 -2.20312 8.32812 7.875
Q3.90625 17.9688 3.90625 31.8906
Q3.90625 40.5781 5.48438 48.2344
Q7.07812 55.9062 11.7812 61.25
Q16.5 66.6094 25 66.6094
Q31.5938 66.6094 35.7812 63.375
Q39.9844 60.1562 42.1875 55.0469
Q44.3906 49.9531 45.1875 44.1094
Q46 38.2812 46 31.8906
Q46 23.2969 44.4062 15.7969
Q42.8281 8.29688 38.1875 3.04688
Q33.5469 -2.20312 25 -2.20312
M25 0.390625
Q30.5625 0.390625 33.2969 6.09375
Q36.0312 11.8125 36.6719 18.75
Q37.3125 25.6875 37.3125 33.5
Q37.3125 41.0156 36.6719 47.3594
Q36.0312 53.7188 33.3125 58.8594
Q30.6094 64.0156 25 64.0156
Q19.3438 64.0156 16.6094 58.8281
Q13.875 53.6562 13.2344 47.3281
Q12.5938 41.0156 12.5938 33.5
Q12.5938 27.9375 12.8594 23
Q13.1406 18.0625 14.3125 12.8125
Q15.4844 7.5625 18.0938 3.96875
Q20.7031 0.390625 25 0.390625" id="Cmr10-30"/>
     </defs>
     <g style="fill:#ff0000;" transform="translate(270.19125 402.4565625)scale(0.24 -0.24)">
      <use transform="translate(0.0 28.609375)" xlink:href="#Cmmi10-62"/>
      <use transform="translate(42.919921875 3.1)scale(0.7)" xlink:href="#Cmr10-30"/>
     </g>
    </g>
   </g>
   <g id="matplotlib.axis_2">
    <g id="ytick_1">
     <g id="line2d_18">
      <defs>
       <path d="
M0 0
L4 0" id="m22ac3d9a07" style="stroke:#008000;stroke-linecap:butt;stroke-width:0.5;"/>
      </defs>
      <g>
       <use style="fill:#008000;stroke:#008000;stroke-linecap:butt;stroke-width:0.5;" x="58.15125" xlink:href="#m22ac3d9a07" y="360.8596875"/>
      </g>
     </g>
     <g id="line2d_19">
      <defs>
       <path d="
M0 0
L-4 0" id="m9d8621f5b6" style="stroke:#008000;stroke-linecap:butt;stroke-width:0.5;"/>
      </defs>
      <g>
       <use style="fill:#008000;stroke:#008000;stroke-linecap:butt;stroke-width:0.5;" x="504.55125" xlink:href="#m9d8621f5b6" y="360.8596875"/>
      </g>
     </g>
     <g id="text_9">
      <!-- −2 -->
      <defs>
       <path d="
M19.1875 8.29688
L53.6094 8.29688
L53.6094 0
L7.32812 0
L7.32812 8.29688
Q12.9375 14.1094 22.625 23.8906
Q32.3281 33.6875 34.8125 36.5312
Q39.5469 41.8438 41.4219 45.5312
Q43.3125 49.2188 43.3125 52.7812
Q43.3125 58.5938 39.2344 62.25
Q35.1562 65.9219 28.6094 65.9219
Q23.9688 65.9219 18.8125 64.3125
Q13.6719 62.7031 7.8125 59.4219
L7.8125 69.3906
Q13.7656 71.7812 18.9375 73
Q24.125 74.2188 28.4219 74.2188
Q39.75 74.2188 46.4844 68.5469
Q53.2188 62.8906 53.2188 53.4219
Q53.2188 48.9219 51.5312 44.8906
Q49.8594 40.875 45.4062 35.4062
Q44.1875 33.9844 37.6406 27.2188
Q31.1094 20.4531 19.1875 8.29688" id="DejaVuSans-32"/>
      </defs>
      <g style="fill:#008000;" transform="translate(38.93375 365.3128125)scale(0.12 -0.12)">
       <use xlink:href="#DejaVuSans-2212"/>
       <use x="83.7890625" xlink:href="#DejaVuSans-32"/>
      </g>
     </g>
    </g>
    <g id="ytick_2">
     <g id="line2d_20">
      <g>
       <use style="fill:#008000;stroke:#008000;stroke-linecap:butt;stroke-width:0.5;" x="58.15125" xlink:href="#m22ac3d9a07" y="311.488258929"/>
      </g>
     </g>
     <g id="line2d_21">
      <g>
       <use style="fill:#008000;stroke:#008000;stroke-linecap:butt;stroke-width:0.5;" x="504.55125" xlink:href="#m9d8621f5b6" y="311.488258929"/>
      </g>
     </g>
     <g id="text_10">
      <!-- −1 -->
      <g style="fill:#008000;" transform="translate(38.84 315.862633929)scale(0.12 -0.12)">
       <use xlink:href="#DejaVuSans-2212"/>
       <use x="83.7890625" xlink:href="#DejaVuSans-31"/>
      </g>
     </g>
    </g>
    <g id="ytick_3">
     <g id="line2d_22">
      <g>
       <use style="fill:#008000;stroke:#008000;stroke-linecap:butt;stroke-width:0.5;" x="58.15125" xlink:href="#m22ac3d9a07" y="262.116830357"/>
      </g>
     </g>
     <g id="line2d_23">
      <g>
       <use style="fill:#008000;stroke:#008000;stroke-linecap:butt;stroke-width:0.5;" x="504.55125" xlink:href="#m9d8621f5b6" y="262.116830357"/>
      </g>
     </g>
     <g id="text_11">
      <!-- 0 -->
      <g style="fill:#008000;" transform="translate(48.104375 266.484642857)scale(0.12 -0.12)">
       <use xlink:href="#DejaVuSans-30"/>
      </g>
     </g>
    </g>
    <g id="ytick_4">
     <g id="line2d_24">
      <g>
       <use style="fill:#008000;stroke:#008000;stroke-linecap:butt;stroke-width:0.5;" x="58.15125" xlink:href="#m22ac3d9a07" y="212.745401786"/>
      </g>
     </g>
     <g id="line2d_25">
      <g>
       <use style="fill:#008000;stroke:#008000;stroke-linecap:butt;stroke-width:0.5;" x="504.55125" xlink:href="#m9d8621f5b6" y="212.745401786"/>
      </g>
     </g>
     <g id="text_12">
      <!-- 1 -->
      <g style="fill:#008000;" transform="translate(48.9425 217.119776786)scale(0.12 -0.12)">
       <use xlink:href="#DejaVuSans-31"/>
      </g>
     </g>
    </g>
    <g id="ytick_5">
     <g id="line2d_26">
      <g>
       <use style="fill:#008000;stroke:#008000;stroke-linecap:butt;stroke-width:0.5;" x="58.15125" xlink:href="#m22ac3d9a07" y="163.373973214"/>
      </g>
     </g>
     <g id="line2d_27">
      <g>
       <use style="fill:#008000;stroke:#008000;stroke-linecap:butt;stroke-width:0.5;" x="504.55125" xlink:href="#m9d8621f5b6" y="163.373973214"/>
      </g>
     </g>
     <g id="text_13">
      <!-- 2 -->
      <g style="fill:#008000;" transform="translate(48.5975 167.827098214)scale(0.12 -0.12)">
       <use xlink:href="#DejaVuSans-32"/>
      </g>
     </g>
    </g>
    <g id="ytick_6">
     <g id="line2d_28">
      <g>
       <use style="fill:#008000;stroke:#008000;stroke-linecap:butt;stroke-width:0.5;" x="58.15125" xlink:href="#m22ac3d9a07" y="114.002544643"/>
      </g>
     </g>
     <g id="line2d_29">
      <g>
       <use style="fill:#008000;stroke:#008000;stroke-linecap:butt;stroke-width:0.5;" x="504.55125" xlink:href="#m9d8621f5b6" y="114.002544643"/>
      </g>
     </g>
     <g id="text_14">
      <!-- 3 -->
      <defs>
       <path d="
M40.5781 39.3125
Q47.6562 37.7969 51.625 33
Q55.6094 28.2188 55.6094 21.1875
Q55.6094 10.4062 48.1875 4.48438
Q40.7656 -1.42188 27.0938 -1.42188
Q22.5156 -1.42188 17.6562 -0.515625
Q12.7969 0.390625 7.625 2.20312
L7.625 11.7188
Q11.7188 9.32812 16.5938 8.10938
Q21.4844 6.89062 26.8125 6.89062
Q36.0781 6.89062 40.9375 10.5469
Q45.7969 14.2031 45.7969 21.1875
Q45.7969 27.6406 41.2812 31.2656
Q36.7656 34.9062 28.7188 34.9062
L20.2188 34.9062
L20.2188 43.0156
L29.1094 43.0156
Q36.375 43.0156 40.2344 45.9219
Q44.0938 48.8281 44.0938 54.2969
Q44.0938 59.9062 40.1094 62.9062
Q36.1406 65.9219 28.7188 65.9219
Q24.6562 65.9219 20.0156 65.0312
Q15.375 64.1562 9.8125 62.3125
L9.8125 71.0938
Q15.4375 72.6562 20.3438 73.4375
Q25.25 74.2188 29.5938 74.2188
Q40.8281 74.2188 47.3594 69.1094
Q53.9062 64.0156 53.9062 55.3281
Q53.9062 49.2656 50.4375 45.0938
Q46.9688 40.9219 40.5781 39.3125" id="DejaVuSans-33"/>
      </defs>
      <g style="fill:#008000;" transform="translate(48.393125 118.370357143)scale(0.12 -0.12)">
       <use xlink:href="#DejaVuSans-33"/>
      </g>
     </g>
    </g>
    <g id="ytick_7">
     <g id="line2d_30">
      <g>
       <use style="fill:#008000;stroke:#008000;stroke-linecap:butt;stroke-width:0.5;" x="58.15125" xlink:href="#m22ac3d9a07" y="64.6311160714"/>
      </g>
     </g>
     <g id="line2d_31">
      <g>
       <use style="fill:#008000;stroke:#008000;stroke-linecap:butt;stroke-width:0.5;" x="504.55125" xlink:href="#m9d8621f5b6" y="64.6311160714"/>
      </g>
     </g>
     <g id="text_15">
      <!-- 4 -->
      <defs>
       <path d="
M37.7969 64.3125
L12.8906 25.3906
L37.7969 25.3906
z

M35.2031 72.9062
L47.6094 72.9062
L47.6094 25.3906
L58.0156 25.3906
L58.0156 17.1875
L47.6094 17.1875
L47.6094 0
L37.7969 0
L37.7969 17.1875
L4.89062 17.1875
L4.89062 26.7031
z
" id="DejaVuSans-34"/>
      </defs>
      <g style="fill:#008000;" transform="translate(47.77625 69.0054910714)scale(0.12 -0.12)">
       <use xlink:href="#DejaVuSans-34"/>
      </g>
     </g>
    </g>
    <g id="ytick_8">
     <g id="line2d_32">
      <g>
       <use style="fill:#008000;stroke:#008000;stroke-linecap:butt;stroke-width:0.5;" x="58.15125" xlink:href="#m22ac3d9a07" y="15.2596875"/>
      </g>
     </g>
     <g id="line2d_33">
      <g>
       <use style="fill:#008000;stroke:#008000;stroke-linecap:butt;stroke-width:0.5;" x="504.55125" xlink:href="#m9d8621f5b6" y="15.2596875"/>
      </g>
     </g>
     <g id="text_16">
      <!-- 5 -->
      <g style="fill:#008000;" transform="translate(48.490625 19.54875)scale(0.12 -0.12)">
       <use xlink:href="#DejaVuSans-35"/>
      </g>
     </g>
    </g>
    <g id="text_17">
     <!-- $b_2$ -->
     <defs>
      <path d="
M4.98438 0
L4.98438 2.6875
Q4.98438 2.9375 5.17188 3.21875
L20.7031 20.4062
Q24.2188 24.2188 26.4062 26.7969
Q28.6094 29.3906 30.75 32.7656
Q32.9062 36.1406 34.1562 39.625
Q35.4062 43.1094 35.4062 47.0156
Q35.4062 51.125 33.8906 54.8594
Q32.375 58.5938 29.375 60.8438
Q26.375 63.0938 22.125 63.0938
Q17.7812 63.0938 14.3125 60.4688
Q10.8438 57.8594 9.42188 53.7188
Q9.8125 53.8125 10.5 53.8125
Q12.75 53.8125 14.3281 52.2969
Q15.9219 50.7812 15.9219 48.3906
Q15.9219 46.0938 14.3281 44.5
Q12.75 42.9219 10.5 42.9219
Q8.15625 42.9219 6.5625 44.5469
Q4.98438 46.1875 4.98438 48.3906
Q4.98438 52.1562 6.39062 55.4375
Q7.8125 58.7344 10.4688 61.2969
Q13.1406 63.875 16.4844 65.2344
Q19.8281 66.6094 23.5781 66.6094
Q29.2969 66.6094 34.2188 64.1875
Q39.1562 61.7656 42.0312 57.3438
Q44.9219 52.9375 44.9219 47.0156
Q44.9219 42.6719 43.0156 38.7656
Q41.1094 34.8594 38.125 31.6562
Q35.1562 28.4688 30.5156 24.4062
Q25.875 20.3594 24.4219 19
L13.0938 8.10938
L22.7031 8.10938
Q29.7812 8.10938 34.5469 8.21875
Q39.3125 8.34375 39.5938 8.59375
Q40.7656 9.85938 42 17.8281
L44.9219 17.8281
L42.0938 0
z
" id="Cmr10-32"/>
     </defs>
     <g style="fill:#008000;" transform="translate(33.84 199.2196875)rotate(-90.0)scale(0.24 -0.24)">
      <use transform="translate(0.0 26.609375)" xlink:href="#Cmmi10-62"/>
      <use transform="translate(42.919921875 1.1)scale(0.7)" xlink:href="#Cmr10-32"/>
     </g>
    </g>
   </g>
   <g id="patch_3">
    <path d="
M58.1513 15.2597
L504.551 15.2597" style="fill:none;stroke:#000000;"/>
   </g>
   <g id="patch_4">
    <path d="
M504.551 360.86
L504.551 15.2597" style="fill:none;stroke:#000000;"/>
   </g>
   <g id="patch_5">
    <path d="
M58.1513 360.86
L504.551 360.86" style="fill:none;stroke:#ff0000;"/>
   </g>
   <g id="patch_6">
    <path d="
M58.1512 360.86
L58.1512 15.2597" style="fill:none;stroke:#008000;"/>
   </g>
   <g id="text_18">
    <g id="patch_7">
     <path d="
M344.031 246.001
L367.471 246.001
L367.471 228.861
L344.031 228.861
z
" style="fill:#fcffc9;stroke:#fcffc9;"/>
    </g>
    <!-- $x_0$ -->
    <defs>
     <path d="
M7.8125 2.875
Q9.57812 1.51562 12.7969 1.51562
Q15.9219 1.51562 18.3125 4.51562
Q20.7031 7.51562 21.5781 11.0781
L26.125 28.8125
Q27.2031 33.6406 27.2031 35.4062
Q27.2031 37.8906 25.8125 39.75
Q24.4219 41.6094 21.9219 41.6094
Q18.75 41.6094 15.9688 39.625
Q13.1875 37.6406 11.2812 34.5938
Q9.375 31.5469 8.59375 28.4219
Q8.40625 27.7812 7.8125 27.7812
L6.59375 27.7812
Q5.8125 27.7812 5.8125 28.7188
L5.8125 29
Q6.78125 32.7188 9.125 36.25
Q11.4688 39.7969 14.8594 41.9844
Q18.2656 44.1875 22.125 44.1875
Q25.7812 44.1875 28.7344 42.2344
Q31.6875 40.2812 32.9062 36.9219
Q34.625 39.9844 37.2812 42.0781
Q39.9375 44.1875 43.1094 44.1875
Q45.2656 44.1875 47.5 43.4219
Q49.75 42.6719 51.1719 41.1094
Q52.5938 39.5469 52.5938 37.2031
Q52.5938 34.6719 50.9531 32.8281
Q49.3125 31 46.7812 31
Q45.1719 31 44.0938 32.0312
Q43.0156 33.0625 43.0156 34.625
Q43.0156 36.7188 44.4531 38.2969
Q45.9062 39.8906 47.9062 40.1875
Q46.0938 41.6094 42.9219 41.6094
Q39.7031 41.6094 37.3281 38.625
Q34.9688 35.6406 33.9844 31.9844
L29.5938 14.3125
Q28.5156 10.2969 28.5156 7.71875
Q28.5156 5.17188 29.9531 3.34375
Q31.3906 1.51562 33.7969 1.51562
Q38.4844 1.51562 42.1562 5.64062
Q45.8438 9.76562 47.0156 14.7031
Q47.2188 15.2812 47.7969 15.2812
L49.0312 15.2812
Q49.4219 15.2812 49.6562 15.0156
Q49.9062 14.75 49.9062 14.4062
Q49.9062 14.3125 49.8125 14.1094
Q48.3906 8.15625 43.8438 3.51562
Q39.3125 -1.125 33.5938 -1.125
Q29.9375 -1.125 26.9844 0.84375
Q24.0312 2.82812 22.7969 6.20312
Q21.2344 3.26562 18.4688 1.0625
Q15.7188 -1.125 12.5938 -1.125
Q10.4531 -1.125 8.17188 -0.359375
Q5.90625 0.390625 4.48438 1.95312
Q3.07812 3.51562 3.07812 5.90625
Q3.07812 8.25 4.70312 10.1719
Q6.34375 12.1094 8.79688 12.1094
Q10.4531 12.1094 11.5781 11.1094
Q12.7031 10.1094 12.7031 8.5
Q12.7031 6.39062 11.2969 4.82812
Q9.90625 3.26562 7.8125 2.875" id="Cmmi10-78"/>
    </defs>
    <g transform="translate(346.03125 244.001116071)scale(0.18 -0.18)">
     <use transform="translate(0.0 28.8125)" xlink:href="#Cmmi10-78"/>
     <use transform="translate(57.080078125 3.303125)scale(0.7)" xlink:href="#Cmr10-30"/>
    </g>
   </g>
   <g id="text_19">
    <g id="patch_8">
     <path d="
M191.991 222.755
L221.911 222.755
L221.911 202.735
L191.991 202.735
z
" style="fill:#fcffc9;stroke:#fcffc9;"/>
    </g>
    <!-- $x_1 t$ -->
    <defs>
     <path d="
M9.28125 0
L9.28125 3.51562
Q21.7812 3.51562 21.7812 6.6875
L21.7812 59.1875
Q16.6094 56.6875 8.6875 56.6875
L8.6875 60.2031
Q20.9531 60.2031 27.2031 66.6094
L28.6094 66.6094
Q28.9531 66.6094 29.2656 66.3281
Q29.5938 66.0625 29.5938 65.7188
L29.5938 6.6875
Q29.5938 3.51562 42.0938 3.51562
L42.0938 0
z
" id="Cmr10-31"/>
     <path d="
M6.20312 8.10938
Q6.20312 9.57812 6.5 10.8906
L13.7188 39.5938
L3.21875 39.5938
Q2.20312 39.5938 2.20312 40.9219
Q2.59375 43.1094 3.51562 43.1094
L14.5938 43.1094
L18.6094 59.4219
Q19 60.75 20.1719 61.6719
Q21.3438 62.5938 22.7969 62.5938
Q24.0781 62.5938 24.9219 61.8281
Q25.7812 61.0781 25.7812 59.8125
Q25.7812 59.5156 25.75 59.3438
Q25.7344 59.1875 25.6875 58.9844
L21.6875 43.1094
L31.9844 43.1094
Q33.0156 43.1094 33.0156 41.7969
Q32.9531 41.5469 32.8125 40.9531
Q32.6719 40.375 32.4219 39.9844
Q32.1719 39.5938 31.6875 39.5938
L20.7969 39.5938
L13.625 10.6875
Q12.8906 7.85938 12.8906 5.8125
Q12.8906 1.51562 15.8281 1.51562
Q20.2188 1.51562 23.6094 5.64062
Q27 9.76562 28.8125 14.7031
Q29.2031 15.2812 29.5938 15.2812
L30.8125 15.2812
Q31.2031 15.2812 31.4375 15.0156
Q31.6875 14.75 31.6875 14.4062
Q31.6875 14.2031 31.5938 14.1094
Q29.3906 8.0625 25.1875 3.46875
Q21 -1.125 15.5781 -1.125
Q11.625 -1.125 8.90625 1.45312
Q6.20312 4.04688 6.20312 8.10938" id="Cmmi10-74"/>
    </defs>
    <g transform="translate(193.99125 220.755401786)scale(0.18 -0.18)">
     <use transform="translate(0.0 26.40625)" xlink:href="#Cmmi10-78"/>
     <use transform="translate(57.080078125 0.896875)scale(0.7)" xlink:href="#Cmr10-31"/>
     <use transform="translate(107.080078125 26.40625)" xlink:href="#Cmmi10-74"/>
    </g>
   </g>
   <g id="text_20">
    <g id="patch_9">
     <path d="
M334.761 175.814
L376.741 175.814
L376.741 150.934
L334.761 150.934
z
" style="fill:#fcffc9;stroke:#fcffc9;"/>
    </g>
    <!-- $x_2 t^2$ -->
    <g transform="translate(336.76125 173.813973214)scale(0.18 -0.18)">
     <use transform="translate(0.0 26.8578125)" xlink:href="#Cmmi10-78"/>
     <use transform="translate(57.080078125 1.3484375)scale(0.7)" xlink:href="#Cmr10-32"/>
     <use transform="translate(107.080078125 26.8578125)" xlink:href="#Cmmi10-74"/>
     <use transform="translate(143.1640625 69.3734375)scale(0.7)" xlink:href="#Cmr10-32"/>
    </g>
   </g>
   <g id="text_21">
    <g id="patch_10">
     <path d="
M443.031 224.585
L488.791 224.585
L488.791 200.905
L443.031 200.905
z
" style="fill:#ffffff;stroke:#ffffff;"/>
    </g>
    <!-- $[1,1]^T$ -->
    <defs>
     <path d="
M2.20312 -25
L2.20312 -21
L11.9219 -21
L11.9219 71
L2.20312 71
L2.20312 75
L15.9219 75
L15.9219 -25
z
" id="Cmr10-5d"/>
     <path d="
M4.59375 1.3125
Q4.64062 1.5625 4.8125 2.1875
Q4.98438 2.82812 5.25 3.17188
Q5.51562 3.51562 6 3.51562
Q14.5938 3.51562 17.3906 4
Q20.0625 4.6875 20.6094 6.89062
L34.2812 61.8125
Q34.7188 63.0312 34.7188 64.0156
Q34.7188 64.7969 31.2031 64.7969
L25.3906 64.7969
Q18.7031 64.7969 15.0625 62.7344
Q11.4219 60.6875 9.71875 57.3125
Q8.01562 53.9531 5.32812 46.2969
Q4.98438 45.4062 4.29688 45.4062
L3.42188 45.4062
Q2.39062 45.4062 2.39062 46.6875
L9.51562 67.3906
Q9.71875 68.3125 10.5 68.3125
L69.5781 68.3125
Q70.6094 68.3125 70.6094 67
L67.2812 46.2969
Q67.2812 46 66.9375 45.7031
Q66.6094 45.4062 66.3125 45.4062
L65.375 45.4062
Q64.4062 45.4062 64.4062 46.6875
Q65.4844 53.7656 65.4844 56.6875
Q65.4844 60.2031 64.0156 62
Q62.5469 63.8125 60.2031 64.2969
Q57.8594 64.7969 54.1094 64.7969
L48.1875 64.7969
Q45.5156 64.7969 44.5781 64.2969
Q43.6562 63.8125 43.0156 61.375
L29.2969 6.5
Q29.25 6.29688 29.2188 6.09375
Q29.2031 5.90625 29.1094 5.60938
Q29.1094 4.34375 30.6094 4
Q33.2031 3.51562 41.7031 3.51562
Q42.6719 3.51562 42.6719 2.20312
Q42.3281 0.78125 42.125 0.390625
Q41.9375 0 41.0156 0
L5.60938 0
Q4.59375 0 4.59375 1.3125" id="Cmmi10-54"/>
     <path d="
M9.90625 -18.0156
Q9.90625 -17.5781 10.2969 -17.1875
Q13.9219 -13.7188 15.9219 -9.17188
Q17.9219 -4.64062 17.9219 0.390625
L17.9219 1.60938
Q16.3125 0 13.9219 0
Q11.625 0 10.0156 1.60938
Q8.40625 3.21875 8.40625 5.51562
Q8.40625 7.85938 10.0156 9.42188
Q11.625 10.9844 13.9219 10.9844
Q17.4844 10.9844 19 7.6875
Q20.5156 4.39062 20.5156 0.390625
Q20.5156 -5.17188 18.2812 -10.1719
Q16.0625 -15.1875 12.0156 -19.1875
Q11.625 -19.3906 11.375 -19.3906
Q10.8906 -19.3906 10.3906 -18.9375
Q9.90625 -18.5 9.90625 -18.0156" id="Cmmi10-3b"/>
     <path d="
M11.8125 -25
L11.8125 75
L25.4844 75
L25.4844 71
L15.8281 71
L15.8281 -21
L25.4844 -21
L25.4844 -25
z
" id="Cmr10-5b"/>
    </defs>
    <g transform="translate(445.03125 222.585401786)scale(0.16 -0.16)">
     <use transform="translate(0.0 25.690625)" xlink:href="#Cmr10-5b"/>
     <use transform="translate(27.685546875 25.690625)" xlink:href="#Cmr10-31"/>
     <use transform="translate(77.685546875 25.690625)" xlink:href="#Cmmi10-3b"/>
     <use transform="translate(107.353515625 25.690625)" xlink:href="#Cmr10-31"/>
     <use transform="translate(157.353515625 25.690625)" xlink:href="#Cmr10-5d"/>
     <use transform="translate(185.0390625 75.18125)scale(0.7)" xlink:href="#Cmmi10-54"/>
    </g>
   </g>
   <g id="text_22">
    <g id="patch_11">
     <path d="
M103.431 150.563
L161.671 150.563
L161.671 126.883
L103.431 126.883
z
" style="fill:#ffffff;stroke:#ffffff;"/>
    </g>
    <!-- $[-1,2]^T$ -->
    <defs>
     <path d="
M10.2031 23
Q9.375 23 8.82812 23.625
Q8.29688 24.2656 8.29688 25
Q8.29688 25.7344 8.82812 26.3594
Q9.375 27 10.2031 27
L67.5781 27
Q68.3594 27 68.875 26.3594
Q69.3906 25.7344 69.3906 25
Q69.3906 24.2656 68.875 23.625
Q68.3594 23 67.5781 23
z
" id="Cmsy10-a1"/>
    </defs>
    <g transform="translate(105.43125 148.562544643)scale(0.16 -0.16)">
     <use transform="translate(0.0 25.690625)" xlink:href="#Cmr10-5b"/>
     <use transform="translate(27.685546875 25.690625)" xlink:href="#Cmsy10-a1"/>
     <use transform="translate(105.37109375 25.690625)" xlink:href="#Cmr10-31"/>
     <use transform="translate(155.37109375 25.690625)" xlink:href="#Cmmi10-3b"/>
     <use transform="translate(185.0390625 25.690625)" xlink:href="#Cmr10-32"/>
     <use transform="translate(235.0390625 25.690625)" xlink:href="#Cmr10-5d"/>
     <use transform="translate(262.724609375 75.18125)scale(0.7)" xlink:href="#Cmmi10-54"/>
    </g>
   </g>
   <g id="text_23">
    <g id="patch_12">
     <path d="
M443.031 76.4711
L488.791 76.4711
L488.791 52.7911
L443.031 52.7911
z
" style="fill:#ffffff;stroke:#ffffff;"/>
    </g>
    <!-- $[1,4]^T$ -->
    <defs>
     <path d="
M2.78125 16.5
L2.78125 20.0156
L33.6875 66.1094
Q34.0312 66.6094 34.7188 66.6094
L36.1875 66.6094
Q37.3125 66.6094 37.3125 65.4844
L37.3125 20.0156
L47.125 20.0156
L47.125 16.5
L37.3125 16.5
L37.3125 6.6875
Q37.3125 4.64062 40.2344 4.07812
Q43.1719 3.51562 47.0156 3.51562
L47.0156 0
L19.4844 0
L19.4844 3.51562
Q23.3438 3.51562 26.2656 4.07812
Q29.2031 4.64062 29.2031 6.6875
L29.2031 16.5
z

M6.10938 20.0156
L29.7812 20.0156
L29.7812 55.4219
z
" id="Cmr10-34"/>
    </defs>
    <g transform="translate(445.03125 74.4711160714)scale(0.16 -0.16)">
     <use transform="translate(0.0 25.690625)" xlink:href="#Cmr10-5b"/>
     <use transform="translate(27.685546875 25.690625)" xlink:href="#Cmr10-31"/>
     <use transform="translate(77.685546875 25.690625)" xlink:href="#Cmmi10-3b"/>
     <use transform="translate(107.353515625 25.690625)" xlink:href="#Cmr10-34"/>
     <use transform="translate(157.353515625 25.690625)" xlink:href="#Cmr10-5d"/>
     <use transform="translate(185.0390625 75.18125)scale(0.7)" xlink:href="#Cmmi10-54"/>
    </g>
   </g>
  </g>
  <g id="axes_2">
   <g id="patch_13">
    <path d="
M338.951 353.66
L482.951 353.66
L482.951 281.66
L338.951 281.66
z
" style="fill:none;opacity:0.0;"/>
   </g>
   <g id="PathCollection_4">
    <defs>
     <path d="
M0 3.53553
C0.937635 3.53553 1.83699 3.16301 2.5 2.5
C3.16301 1.83699 3.53553 0.937635 3.53553 0
C3.53553 -0.937635 3.16301 -1.83699 2.5 -2.5
C1.83699 -3.16301 0.937635 -3.53553 0 -3.53553
C-0.937635 -3.53553 -1.83699 -3.16301 -2.5 -2.5
C-3.16301 -1.83699 -3.53553 -0.937635 -3.53553 0
C-3.53553 0.937635 -3.16301 1.83699 -2.5 2.5
C-1.83699 3.16301 -0.937635 3.53553 0 3.53553
z
" id="C3_0_44316a752d"/>
    </defs>
    <g clip-path="url(#p4c594bba3e)">
     <use style="fill:#ff0000;stroke:#ff0000;stroke-linecap:butt;" x="356.95125" xlink:href="#C3_0_44316a752d" y="293.6596875"/>
    </g>
   </g>
   <g id="PathCollection_5">
    <defs>
     <path d="
M0 3.53553
C0.937635 3.53553 1.83699 3.16301 2.5 2.5
C3.16301 1.83699 3.53553 0.937635 3.53553 0
C3.53553 -0.937635 3.16301 -1.83699 2.5 -2.5
C1.83699 -3.16301 0.937635 -3.53553 0 -3.53553
C-0.937635 -3.53553 -1.83699 -3.16301 -2.5 -2.5
C-3.16301 -1.83699 -3.53553 -0.937635 -3.53553 0
C-3.53553 0.937635 -3.16301 1.83699 -2.5 2.5
C-1.83699 3.16301 -0.937635 3.53553 0 3.53553
z
" id="C4_0_44316a752d"/>
    </defs>
    <g clip-path="url(#p4c594bba3e)">
     <use style="fill:#d3d3d3;stroke:#d3d3d3;stroke-linecap:butt;" x="392.95125" xlink:href="#C4_0_44316a752d" y="293.6596875"/>
    </g>
   </g>
   <g id="PathCollection_6">
    <defs>
     <path d="
M0 3.53553
C0.937635 3.53553 1.83699 3.16301 2.5 2.5
C3.16301 1.83699 3.53553 0.937635 3.53553 0
C3.53553 -0.937635 3.16301 -1.83699 2.5 -2.5
C1.83699 -3.16301 0.937635 -3.53553 0 -3.53553
C-0.937635 -3.53553 -1.83699 -3.16301 -2.5 -2.5
C-3.16301 -1.83699 -3.53553 -0.937635 -3.53553 0
C-3.53553 0.937635 -3.16301 1.83699 -2.5 2.5
C-1.83699 3.16301 -0.937635 3.53553 0 3.53553
z
" id="C5_0_44316a752d"/>
    </defs>
    <g clip-path="url(#p4c594bba3e)">
     <use style="fill:#008000;stroke:#008000;stroke-linecap:butt;" x="464.95125" xlink:href="#C5_0_44316a752d" y="293.6596875"/>
    </g>
   </g>
   <g id="line2d_34">
    <path clip-path="url(#p4c594bba3e)" d="
M356.951 341.66
L356.955 293.66" style="fill:none;stroke:#ff0000;"/>
   </g>
   <g id="line2d_35">
    <path clip-path="url(#p4c594bba3e)" d="
M392.951 341.66
L392.955 293.66" style="fill:none;stroke:#d3d3d3;"/>
   </g>
   <g id="line2d_36">
    <path clip-path="url(#p4c594bba3e)" d="
M464.951 341.66
L464.955 293.66" style="fill:none;stroke:#008000;"/>
   </g>
   <g id="line2d_37">
    <path clip-path="url(#p4c594bba3e)" d="
M356.951 293.66
L359.155 293.66
L361.359 293.66
L363.563 293.66
L365.768 293.66
L367.972 293.66
L370.176 293.66
L372.38 293.66
L374.584 293.66
L376.788 293.66
L378.992 293.66
L381.196 293.66
L383.4 293.66
L385.604 293.66
L387.808 293.66
L390.012 293.66
L392.217 293.66
L394.421 293.66
L396.625 293.66
L398.829 293.66
L401.033 293.66
L403.237 293.66
L405.441 293.66
L407.645 293.66
L409.849 293.66
L412.053 293.66
L414.257 293.66
L416.461 293.66
L418.666 293.66
L420.87 293.66
L423.074 293.66
L425.278 293.66
L427.482 293.66
L429.686 293.66
L431.89 293.66
L434.094 293.66
L436.298 293.66
L438.502 293.66
L440.706 293.66
L442.91 293.66
L445.115 293.66
L447.319 293.66
L449.523 293.66
L451.727 293.66
L453.931 293.66
L456.135 293.66
L458.339 293.66
L460.543 293.66
L462.747 293.66
L464.951 293.66" style="fill:none;stroke:#000000;stroke-dasharray:6.000000,6.000000;stroke-dashoffset:0.0;stroke-linecap:butt;"/>
   </g>
   <g id="matplotlib.axis_3"/>
   <g id="matplotlib.axis_4"/>
   <g id="patch_14">
    <path d="
M338.951 281.66
L482.951 281.66" style="fill:none;opacity:0.0;"/>
   </g>
   <g id="patch_15">
    <path d="
M482.951 353.66
L482.951 281.66" style="fill:none;opacity:0.0;"/>
   </g>
   <g id="patch_16">
    <path d="
M338.951 341.66
L482.951 341.66" style="fill:none;stroke:#808080;"/>
   </g>
   <g id="patch_17">
    <path d="
M338.951 353.66
L338.951 281.66" style="fill:none;opacity:0.0;"/>
   </g>
   <g id="text_24">
    <!-- $b_0=1$ -->
    <defs>
     <path d="
M7.51562 13.2812
Q6.6875 13.2812 6.14062 13.9062
Q5.60938 14.5469 5.60938 15.2812
Q5.60938 16.1094 6.14062 16.6875
Q6.6875 17.2812 7.51562 17.2812
L70.3125 17.2812
Q71.0469 17.2812 71.5781 16.6875
Q72.125 16.1094 72.125 15.2812
Q72.125 14.5469 71.5781 13.9062
Q71.0469 13.2812 70.3125 13.2812
z

M7.51562 32.7188
Q6.6875 32.7188 6.14062 33.2969
Q5.60938 33.8906 5.60938 34.7188
Q5.60938 35.4531 6.14062 36.0781
Q6.6875 36.7188 7.51562 36.7188
L70.3125 36.7188
Q71.0469 36.7188 71.5781 36.0781
Q72.125 35.4531 72.125 34.7188
Q72.125 33.8906 71.5781 33.2969
Q71.0469 32.7188 70.3125 32.7188
z
" id="Cmr10-3d"/>
    </defs>
    <g style="fill:#ff0000;" transform="translate(342.25125 287.5396875)scale(0.12 -0.12)">
     <use transform="translate(0.0 28.609375)" xlink:href="#Cmmi10-62"/>
     <use transform="translate(42.919921875 3.1)scale(0.7)" xlink:href="#Cmr10-30"/>
     <use transform="translate(110.478515625 28.609375)" xlink:href="#Cmr10-3d"/>
     <use transform="translate(194.537109375 28.609375)" xlink:href="#Cmr10-31"/>
    </g>
   </g>
   <g id="text_25">
    <!-- $b_1=1$ -->
    <g style="fill:#d3d3d3;" transform="translate(378.25125 287.4196875)scale(0.12 -0.12)">
     <use transform="translate(0.0 26.609375)" xlink:href="#Cmmi10-62"/>
     <use transform="translate(42.919921875 1.1)scale(0.7)" xlink:href="#Cmr10-31"/>
     <use transform="translate(110.478515625 26.609375)" xlink:href="#Cmr10-3d"/>
     <use transform="translate(194.537109375 26.609375)" xlink:href="#Cmr10-31"/>
    </g>
   </g>
   <g id="text_26">
    <!-- $b_2=1$ -->
    <g style="fill:#008000;" transform="translate(450.25125 287.4196875)scale(0.12 -0.12)">
     <use transform="translate(0.0 26.609375)" xlink:href="#Cmmi10-62"/>
     <use transform="translate(42.919921875 1.1)scale(0.7)" xlink:href="#Cmr10-32"/>
     <use transform="translate(110.478515625 26.609375)" xlink:href="#Cmr10-3d"/>
     <use transform="translate(194.537109375 26.609375)" xlink:href="#Cmr10-31"/>
    </g>
   </g>
  </g>
  <g id="axes_3">
   <g id="patch_18">
    <path d="
M79.7512 332.06
L223.751 332.06
L223.751 260.06
L79.7512 260.06
z
" style="fill:none;opacity:0.0;"/>
   </g>
   <g id="PathCollection_7">
    <defs>
     <path d="
M0 3.53553
C0.937635 3.53553 1.83699 3.16301 2.5 2.5
C3.16301 1.83699 3.53553 0.937635 3.53553 0
C3.53553 -0.937635 3.16301 -1.83699 2.5 -2.5
C1.83699 -3.16301 0.937635 -3.53553 0 -3.53553
C-0.937635 -3.53553 -1.83699 -3.16301 -2.5 -2.5
C-3.16301 -1.83699 -3.53553 -0.937635 -3.53553 0
C-3.53553 0.937635 -3.16301 1.83699 -2.5 2.5
C-1.83699 3.16301 -0.937635 3.53553 0 3.53553
z
" id="C6_0_44316a752d"/>
    </defs>
    <g clip-path="url(#p997b9560ae)">
     <use style="fill:#ff0000;stroke:#ff0000;stroke-linecap:butt;" x="97.75125" xlink:href="#C6_0_44316a752d" y="326.916830357"/>
    </g>
   </g>
   <g id="PathCollection_8">
    <defs>
     <path d="
M0 3.53553
C0.937635 3.53553 1.83699 3.16301 2.5 2.5
C3.16301 1.83699 3.53553 0.937635 3.53553 0
C3.53553 -0.937635 3.16301 -1.83699 2.5 -2.5
C1.83699 -3.16301 0.937635 -3.53553 0 -3.53553
C-0.937635 -3.53553 -1.83699 -3.16301 -2.5 -2.5
C-3.16301 -1.83699 -3.53553 -0.937635 -3.53553 0
C-3.53553 0.937635 -3.16301 1.83699 -2.5 2.5
C-1.83699 3.16301 -0.937635 3.53553 0 3.53553
z
" id="C7_0_44316a752d"/>
    </defs>
    <g clip-path="url(#p997b9560ae)">
     <use style="fill:#d3d3d3;stroke:#d3d3d3;stroke-linecap:butt;" x="133.75125" xlink:href="#C7_0_44316a752d" y="306.345401786"/>
    </g>
   </g>
   <g id="PathCollection_9">
    <defs>
     <path d="
M0 3.53553
C0.937635 3.53553 1.83699 3.16301 2.5 2.5
C3.16301 1.83699 3.53553 0.937635 3.53553 0
C3.53553 -0.937635 3.16301 -1.83699 2.5 -2.5
C1.83699 -3.16301 0.937635 -3.53553 0 -3.53553
C-0.937635 -3.53553 -1.83699 -3.16301 -2.5 -2.5
C-3.16301 -1.83699 -3.53553 -0.937635 -3.53553 0
C-3.53553 0.937635 -3.16301 1.83699 -2.5 2.5
C-1.83699 3.16301 -0.937635 3.53553 0 3.53553
z
" id="C8_0_44316a752d"/>
    </defs>
    <g clip-path="url(#p997b9560ae)">
     <use style="fill:#008000;stroke:#008000;stroke-linecap:butt;" x="205.75125" xlink:href="#C8_0_44316a752d" y="265.202544643"/>
    </g>
   </g>
   <g id="line2d_38">
    <path clip-path="url(#p997b9560ae)" d="
M97.7512 306.345
L97.7549 326.917" style="fill:none;stroke:#ff0000;"/>
   </g>
   <g id="line2d_39">
    <path clip-path="url(#p997b9560ae)" d="
M133.751 306.345
L133.755 306.345" style="fill:none;stroke:#d3d3d3;"/>
   </g>
   <g id="line2d_40">
    <path clip-path="url(#p997b9560ae)" d="
M205.751 306.345
L205.755 265.203" style="fill:none;stroke:#008000;"/>
   </g>
   <g id="line2d_41">
    <path clip-path="url(#p997b9560ae)" d="
M97.7512 326.917
L99.9553 325.657
L102.159 324.398
L104.363 323.138
L106.568 321.879
L108.772 320.619
L110.976 319.36
L113.18 318.101
L115.384 316.841
L117.588 315.582
L119.792 314.322
L121.996 313.063
L124.2 311.803
L126.404 310.544
L128.608 309.284
L130.812 308.025
L133.017 306.765
L135.221 305.506
L137.425 304.246
L139.629 302.987
L141.833 301.727
L144.037 300.468
L146.241 299.208
L148.445 297.949
L150.649 296.689
L152.853 295.43
L155.057 294.17
L157.261 292.911
L159.466 291.652
L161.67 290.392
L163.874 289.133
L166.078 287.873
L168.282 286.614
L170.486 285.354
L172.69 284.095
L174.894 282.835
L177.098 281.576
L179.302 280.316
L181.506 279.057
L183.71 277.797
L185.915 276.538
L188.119 275.278
L190.323 274.019
L192.527 272.759
L194.731 271.5
L196.935 270.24
L199.139 268.981
L201.343 267.721
L203.547 266.462
L205.751 265.203" style="fill:none;stroke:#000000;stroke-dasharray:6.000000,6.000000;stroke-dashoffset:0.0;stroke-linecap:butt;"/>
   </g>
   <g id="matplotlib.axis_5"/>
   <g id="matplotlib.axis_6"/>
   <g id="patch_19">
    <path d="
M79.7512 260.06
L223.751 260.06" style="fill:none;opacity:0.0;"/>
   </g>
   <g id="patch_20">
    <path d="
M223.751 332.06
L223.751 260.06" style="fill:none;opacity:0.0;"/>
   </g>
   <g id="patch_21">
    <path d="
M79.7512 306.345
L223.751 306.345" style="fill:none;stroke:#808080;"/>
   </g>
   <g id="patch_22">
    <path d="
M79.7512 332.06
L79.7512 260.06" style="fill:none;opacity:0.0;"/>
   </g>
   <g id="text_27">
    <!-- $b_0=-1$ -->
    <g style="fill:#ff0000;" transform="translate(78.37125 343.082544643)scale(0.12 -0.12)">
     <use transform="translate(0.0 28.609375)" xlink:href="#Cmmi10-62"/>
     <use transform="translate(42.919921875 3.1)scale(0.7)" xlink:href="#Cmr10-30"/>
     <use transform="translate(110.478515625 28.609375)" xlink:href="#Cmr10-3d"/>
     <use transform="translate(194.537109375 28.609375)" xlink:href="#Cmsy10-a1"/>
     <use transform="translate(272.22265625 28.609375)" xlink:href="#Cmr10-31"/>
    </g>
   </g>
   <g id="text_28">
    <!-- $b_1=0$ -->
    <g style="fill:#d3d3d3;" transform="translate(119.05125 301.8196875)scale(0.12 -0.12)">
     <use transform="translate(0.0 26.609375)" xlink:href="#Cmmi10-62"/>
     <use transform="translate(42.919921875 1.1)scale(0.7)" xlink:href="#Cmr10-31"/>
     <use transform="translate(110.478515625 26.609375)" xlink:href="#Cmr10-3d"/>
     <use transform="translate(194.537109375 26.609375)" xlink:href="#Cmr10-30"/>
    </g>
   </g>
   <g id="text_29">
    <!-- $b_2=2$ -->
    <g style="fill:#008000;" transform="translate(191.05125 260.676830357)scale(0.12 -0.12)">
     <use transform="translate(0.0 26.609375)" xlink:href="#Cmmi10-62"/>
     <use transform="translate(42.919921875 1.1)scale(0.7)" xlink:href="#Cmr10-32"/>
     <use transform="translate(110.478515625 26.609375)" xlink:href="#Cmr10-3d"/>
     <use transform="translate(194.537109375 26.609375)" xlink:href="#Cmr10-32"/>
    </g>
   </g>
  </g>
  <g id="axes_4">
   <g id="patch_23">
    <path d="
M223.751 126.86
L367.751 126.86
L367.751 54.8597
L223.751 54.8597
z
" style="fill:none;opacity:0.0;"/>
   </g>
   <g id="PathCollection_10">
    <defs>
     <path d="
M0 3.53553
C0.937635 3.53553 1.83699 3.16301 2.5 2.5
C3.16301 1.83699 3.53553 0.937635 3.53553 0
C3.53553 -0.937635 3.16301 -1.83699 2.5 -2.5
C1.83699 -3.16301 0.937635 -3.53553 0 -3.53553
C-0.937635 -3.53553 -1.83699 -3.16301 -2.5 -2.5
C-3.16301 -1.83699 -3.53553 -0.937635 -3.53553 0
C-3.53553 0.937635 -3.16301 1.83699 -2.5 2.5
C-1.83699 3.16301 -0.937635 3.53553 0 3.53553
z
" id="C9_0_44316a752d"/>
    </defs>
    <g clip-path="url(#pdceaedd6d7)">
     <use style="fill:#ff0000;stroke:#ff0000;stroke-linecap:butt;" x="241.75125" xlink:href="#C9_0_44316a752d" y="97.4051420455"/>
    </g>
   </g>
   <g id="PathCollection_11">
    <defs>
     <path d="
M0 3.53553
C0.937635 3.53553 1.83699 3.16301 2.5 2.5
C3.16301 1.83699 3.53553 0.937635 3.53553 0
C3.53553 -0.937635 3.16301 -1.83699 2.5 -2.5
C1.83699 -3.16301 0.937635 -3.53553 0 -3.53553
C-0.937635 -3.53553 -1.83699 -3.16301 -2.5 -2.5
C-3.16301 -1.83699 -3.53553 -0.937635 -3.53553 0
C-3.53553 0.937635 -3.16301 1.83699 -2.5 2.5
C-1.83699 3.16301 -0.937635 3.53553 0 3.53553
z
" id="Ca_0_44316a752d"/>
    </defs>
    <g clip-path="url(#pdceaedd6d7)">
     <use style="fill:#d3d3d3;stroke:#d3d3d3;stroke-linecap:butt;" x="277.75125" xlink:href="#Ca_0_44316a752d" y="110.496051136"/>
    </g>
   </g>
   <g id="PathCollection_12">
    <defs>
     <path d="
M0 3.53553
C0.937635 3.53553 1.83699 3.16301 2.5 2.5
C3.16301 1.83699 3.53553 0.937635 3.53553 0
C3.53553 -0.937635 3.16301 -1.83699 2.5 -2.5
C1.83699 -3.16301 0.937635 -3.53553 0 -3.53553
C-0.937635 -3.53553 -1.83699 -3.16301 -2.5 -2.5
C-3.16301 -1.83699 -3.53553 -0.937635 -3.53553 0
C-3.53553 0.937635 -3.16301 1.83699 -2.5 2.5
C-1.83699 3.16301 -0.937635 3.53553 0 3.53553
z
" id="Cb_0_44316a752d"/>
    </defs>
    <g clip-path="url(#pdceaedd6d7)">
     <use style="fill:#008000;stroke:#008000;stroke-linecap:butt;" x="349.75125" xlink:href="#Cb_0_44316a752d" y="58.1324147727"/>
    </g>
   </g>
   <g id="line2d_42">
    <path clip-path="url(#pdceaedd6d7)" d="
M241.751 110.496
L241.755 97.4051" style="fill:none;stroke:#ff0000;"/>
   </g>
   <g id="line2d_43">
    <path clip-path="url(#pdceaedd6d7)" d="
M277.751 110.496
L277.755 110.496" style="fill:none;stroke:#d3d3d3;"/>
   </g>
   <g id="line2d_44">
    <path clip-path="url(#pdceaedd6d7)" d="
M349.751 110.496
L349.755 58.1324" style="fill:none;stroke:#008000;"/>
   </g>
   <g id="line2d_45">
    <path clip-path="url(#pdceaedd6d7)" d="
M241.751 97.4051
L243.955 98.959
L246.159 100.415
L248.363 101.772
L250.568 103.032
L252.772 104.193
L254.976 105.256
L257.18 106.221
L259.384 107.088
L261.588 107.857
L263.792 108.528
L265.996 109.1
L268.2 109.575
L270.404 109.951
L272.608 110.229
L274.812 110.409
L277.017 110.491
L279.221 110.474
L281.425 110.36
L283.629 110.147
L285.833 109.836
L288.037 109.427
L290.241 108.92
L292.445 108.315
L294.649 107.612
L296.853 106.81
L299.057 105.911
L301.261 104.913
L303.466 103.817
L305.67 102.623
L307.874 101.331
L310.078 99.9404
L312.282 98.452
L314.486 96.8654
L316.69 95.1806
L318.894 93.3977
L321.098 91.5167
L323.302 89.5375
L325.506 87.4602
L327.71 85.2847
L329.915 83.0111
L332.119 80.6394
L334.323 78.1695
L336.527 75.6015
L338.731 72.9353
L340.935 70.171
L343.139 67.3086
L345.343 64.348
L347.547 61.2893
L349.751 58.1324" style="fill:none;stroke:#000000;stroke-dasharray:6.000000,6.000000;stroke-dashoffset:0.0;stroke-linecap:butt;"/>
   </g>
   <g id="matplotlib.axis_7"/>
   <g id="matplotlib.axis_8"/>
   <g id="patch_24">
    <path d="
M223.751 54.8597
L367.751 54.8597" style="fill:none;opacity:0.0;"/>
   </g>
   <g id="patch_25">
    <path d="
M367.751 126.86
L367.751 54.8597" style="fill:none;opacity:0.0;"/>
   </g>
   <g id="patch_26">
    <path d="
M223.751 110.496
L367.751 110.496" style="fill:none;stroke:#808080;"/>
   </g>
   <g id="patch_27">
    <path d="
M223.751 126.86
L223.751 54.8597" style="fill:none;opacity:0.0;"/>
   </g>
   <g id="text_30">
    <!-- $b_0=1$ -->
    <g style="fill:#ff0000;" transform="translate(227.05125 90.1942329545)scale(0.12 -0.12)">
     <use transform="translate(0.0 28.609375)" xlink:href="#Cmmi10-62"/>
     <use transform="translate(42.919921875 3.1)scale(0.7)" xlink:href="#Cmr10-30"/>
     <use transform="translate(110.478515625 28.609375)" xlink:href="#Cmr10-3d"/>
     <use transform="translate(194.537109375 28.609375)" xlink:href="#Cmr10-31"/>
    </g>
   </g>
   <g id="text_31">
    <!-- $b_1=0$ -->
    <g style="fill:#d3d3d3;" transform="translate(263.05125 103.165142045)scale(0.12 -0.12)">
     <use transform="translate(0.0 26.609375)" xlink:href="#Cmmi10-62"/>
     <use transform="translate(42.919921875 1.1)scale(0.7)" xlink:href="#Cmr10-31"/>
     <use transform="translate(110.478515625 26.609375)" xlink:href="#Cmr10-3d"/>
     <use transform="translate(194.537109375 26.609375)" xlink:href="#Cmr10-30"/>
    </g>
   </g>
   <g id="text_32">
    <!-- $b_2=4$ -->
    <g style="fill:#008000;" transform="translate(335.05125 50.8015056818)scale(0.12 -0.12)">
     <use transform="translate(0.0 26.609375)" xlink:href="#Cmmi10-62"/>
     <use transform="translate(42.919921875 1.1)scale(0.7)" xlink:href="#Cmr10-32"/>
     <use transform="translate(110.478515625 26.609375)" xlink:href="#Cmr10-3d"/>
     <use transform="translate(194.537109375 26.609375)" xlink:href="#Cmr10-34"/>
    </g>
   </g>
  </g>
 </g>
 <defs>
  <clipPath id="p997b9560ae">
   <rect height="72.0" width="144.0" x="79.75125" y="260.0596875"/>
  </clipPath>
  <clipPath id="p4c594bba3e">
   <rect height="72.0" width="144.0" x="338.95125" y="281.6596875"/>
  </clipPath>
  <clipPath id="pdceaedd6d7">
   <rect height="72.0" width="144.0" x="223.75125" y="54.8596875"/>
  </clipPath>
  <clipPath id="pa8fed4111e">
   <rect height="345.6" width="446.4" x="58.15125" y="15.2596875"/>
  </clipPath>
 </defs>
</svg>
